<?xml version="1.0" encoding="UTF-8" standalone="no"?>
<!-- Created with Inkscape (http://www.inkscape.org/) -->

<svg
   xmlns:dc="http://purl.org/dc/elements/1.1/"
   xmlns:cc="http://creativecommons.org/ns#"
   xmlns:rdf="http://www.w3.org/1999/02/22-rdf-syntax-ns#"
   xmlns:svg="http://www.w3.org/2000/svg"
   xmlns="http://www.w3.org/2000/svg"
   xmlns:sodipodi="http://sodipodi.sourceforge.net/DTD/sodipodi-0.dtd"
   xmlns:inkscape="http://www.inkscape.org/namespaces/inkscape"
   width="240"
   height="130"
   viewBox="0 0 744.09449 1052.3622"
   id="svg4443"
   version="1.1"
   inkscape:version="0.48.4 r9939"
   sodipodi:docname="1.svg">
  <defs
     id="defs4445" />
  <sodipodi:namedview
     id="base"
     pagecolor="#ffffff"
     bordercolor="#666666"
     borderopacity="1.0"
     inkscape:pageopacity="0.0"
     inkscape:pageshadow="2"
     inkscape:zoom="1.979899"
     inkscape:cx="47.938645"
     inkscape:cy="75.532877"
     inkscape:document-units="px"
     inkscape:current-layer="layer1"
     showgrid="false"
     inkscape:window-width="1600"
     inkscape:window-height="838"
     inkscape:window-x="1432"
     inkscape:window-y="-8"
     inkscape:window-maximized="1" />
  <metadata
     id="metadata4448">
    <rdf:RDF>
      <cc:Work
         rdf:about="">
        <dc:format>image/svg+xml</dc:format>
        <dc:type
           rdf:resource="http://purl.org/dc/dcmitype/StillImage" />
        <dc:title />
      </cc:Work>
    </rdf:RDF>
  </metadata>
  <g
     inkscape:label="Calque 1"
     inkscape:groupmode="layer"
     id="layer1">
    <path
       style="fill:#038141;fill-opacity:1;fill-rule:evenodd;stroke:none"
       d="m -378.29247,357.79054 90.64758,0 c 75.44988,0 136.19121,60.74128 136.19121,136.19122 l 0,313.93237 c 0,75.44988 -60.74133,136.19121 -136.19121,136.19121 l -90.64758,0 c -75.44997,0 -136.1912,-60.74133 -136.1912,-136.19121 l 0,-313.93237 c 0,-75.44994 60.74123,-136.19122 136.1912,-136.19122 z"
       id="rect5145"
       inkscape:connector-curvature="0" />
    <path
       inkscape:connector-curvature="0"
       id="path5635"
       style="font-size:medium;font-style:normal;font-variant:normal;font-weight:800;font-stretch:normal;line-height:89.99999762%;letter-spacing:0px;word-spacing:0px;fill:#ffffff;fill-opacity:0.44606413;stroke:none;font-family:Raleway;-inkscape-font-specification:Raleway Ultra-Bold"
       d="m -380.62357,514.00202 55.40668,0 96.96168,265.80222 -62.89409,0 -20.59031,-59.52472 -82.73563,0 -20.21593,59.52472 -62.89399,0 96.96159,-265.80222 z m 58.77605,163.97382 -31.07271,-93.9667 -31.82138,93.9667 62.89409,0 z" />
    <path
       style="fill:#0039ff;fill-opacity:0.62973764;fill-rule:evenodd;stroke:#ffffff;stroke-width:61.03178787;stroke-linecap:round;stroke-linejoin:round;stroke-miterlimit:4;stroke-opacity:1;stroke-dasharray:none;stroke-dashoffset:0"
       d="m -368.55151,281.61584 39.3264,0 c 108.69904,0 196.20775,87.50863 196.20775,196.2077 l 0,343.94055 c 0,108.69904 -87.50871,196.20761 -196.20775,196.20761 l -39.3264,0 c -108.69905,0 -196.20766,-87.50857 -196.20766,-196.20761 l 0,-343.94055 c 0,-108.69907 87.50861,-196.2077 196.20766,-196.2077 z"
       id="rect5229"
       inkscape:connector-curvature="0" />
    <path
       style="fill:#038141;fill-opacity:1;fill-rule:evenodd;stroke:none"
       d="m -368.55151,281.61584 39.3264,0 c 108.69904,0 196.20775,87.50863 196.20775,196.2077 l 0,343.94055 c 0,108.69904 -87.50871,196.20761 -196.20775,196.20761 l -39.3264,0 c -108.69905,0 -196.20766,-87.50857 -196.20766,-196.20761 l 0,-343.94055 c 0,-108.69907 87.50861,-196.2077 196.20766,-196.2077 z"
       id="rect5231"
       inkscape:connector-curvature="0" />
    <path
       inkscape:connector-curvature="0"
       id="path5539"
       style="font-size:medium;font-style:normal;font-variant:normal;font-weight:800;font-stretch:normal;line-height:89.99999762%;letter-spacing:0px;word-spacing:0px;fill:#ffffff;fill-opacity:1;stroke:none;font-family:Raleway;-inkscape-font-specification:Raleway Ultra-Bold"
       d="m -382.39205,481.75344 67.00728,0 117.26279,350.43804 -76.06237,0 -24.90135,-78.47846 -100.05822,0 -24.44864,78.47846 -76.06218,0 117.26269,-350.43804 z m 71.08202,216.18566 -37.57838,-123.88723 -38.48389,123.88723 76.06227,0 z" />
  </g>
</svg>
