<?xml version="1.0" encoding="UTF-8" standalone="no"?>
<!-- Created with Inkscape (http://www.inkscape.org/) -->

<svg
   xmlns:dc="http://purl.org/dc/elements/1.1/"
   xmlns:cc="http://creativecommons.org/ns#"
   xmlns:rdf="http://www.w3.org/1999/02/22-rdf-syntax-ns#"
   xmlns:svg="http://www.w3.org/2000/svg"
   xmlns="http://www.w3.org/2000/svg"
   xmlns:sodipodi="http://sodipodi.sourceforge.net/DTD/sodipodi-0.dtd"
   xmlns:inkscape="http://www.inkscape.org/namespaces/inkscape"
   width="240"
   height="130"
   viewBox="0 0 744.09449 1052.3622"
   id="svg4443"
   version="1.1"
   inkscape:version="0.48.4 r9939"
   sodipodi:docname="2.svg">
  <defs
     id="defs4445" />
  <sodipodi:namedview
     id="base"
     pagecolor="#ffffff"
     bordercolor="#666666"
     borderopacity="1.0"
     inkscape:pageopacity="0.0"
     inkscape:pageshadow="2"
     inkscape:zoom="1.979899"
     inkscape:cx="-44.237774"
     inkscape:cy="0.55574156"
     inkscape:document-units="px"
     inkscape:current-layer="layer1"
     showgrid="false"
     inkscape:window-width="1600"
     inkscape:window-height="838"
     inkscape:window-x="1432"
     inkscape:window-y="-8"
     inkscape:window-maximized="1" />
  <metadata
     id="metadata4448">
    <rdf:RDF>
      <cc:Work
         rdf:about="">
        <dc:format>image/svg+xml</dc:format>
        <dc:type
           rdf:resource="http://purl.org/dc/dcmitype/StillImage" />
        <dc:title />
      </cc:Work>
    </rdf:RDF>
  </metadata>
  <g
     inkscape:label="Calque 1"
     inkscape:groupmode="layer"
     id="layer1">
    <path
       style="fill:#85bb2f;fill-opacity:1;fill-rule:evenodd;stroke:none"
       d="m -165.2011,357.79046 -363.03008,0 0,586.31476 363.03008,0 z"
       id="rect5177"
       inkscape:connector-curvature="0" />
    <path
       inkscape:connector-curvature="0"
       id="path5592"
       style="font-size:medium;font-style:normal;font-variant:normal;font-weight:800;font-stretch:normal;line-height:89.99999762%;letter-spacing:0px;word-spacing:0px;fill:#ffffff;fill-opacity:0.44606413;stroke:none;font-family:Raleway;-inkscape-font-specification:Raleway Ultra-Bold"
       d="m -217.51391,720.90218 q 0,17.22104 -7.11303,29.94956 -7.11303,12.72861 -19.46725,21.33908 -12.35413,8.23618 -28.8264,12.72861 -16.47227,4.11804 -34.81637,4.11804 l -129.53183,0 0,-265.80221 147.87593,0 q 13.85167,0 25.08274,5.98987 11.23107,5.98987 19.09287,15.7235 7.8617,9.35924 11.97984,21.71346 4.49243,11.97984 4.49243,24.70836 0,19.09286 -9.73363,35.93942 -9.35924,16.84665 -28.45211,25.45712 22.83653,6.73865 35.93952,23.95968 13.47729,17.22095 13.47729,44.17551 z m -62.51971,-12.35413 q 0,-12.35422 -7.11302,-20.96469 -7.11303,-8.61047 -17.96972,-8.61047 l -70.75579,0 0,58.02718 68.13519,0 q 11.97984,0 19.84155,-7.8617 7.86179,-7.8618 7.86179,-20.59032 z m -95.83853,-132.9011 0,55.03229 60.2734,0 q 10.10801,0 17.9698,-6.73864 7.86171,-6.73865 7.86171,-20.9647 0,-13.1029 -7.11303,-20.21592 -6.73864,-7.11303 -16.47227,-7.11303 l -62.51961,0 z" />
    <path
       style="fill:#0039ff;fill-opacity:0.62973764;fill-rule:evenodd;stroke:#ffffff;stroke-width:61.03178787;stroke-linecap:round;stroke-linejoin:round;stroke-miterlimit:4;stroke-opacity:1;stroke-dasharray:none;stroke-dashoffset:0"
       d="m -364.34025,281.61579 39.32639,0 c 108.69904,0 196.20765,87.50861 196.20765,196.20765 l 0,343.94054 c 0,108.69904 -87.50861,196.20762 -196.20765,196.20762 l -39.32639,0 c -108.69914,0 -196.20774,-87.50858 -196.20774,-196.20762 l 0,-343.94054 c 0,-108.69904 87.5086,-196.20765 196.20774,-196.20765 z"
       id="rect5187"
       inkscape:connector-curvature="0" />
    <path
       style="fill:#85bb2f;fill-opacity:1;fill-rule:evenodd;stroke:none"
       d="m -364.34025,281.61579 39.32639,0 c 108.69904,0 196.20765,87.50861 196.20765,196.20765 l 0,343.94054 c 0,108.69904 -87.50861,196.20762 -196.20765,196.20762 l -39.32639,0 c -108.69914,0 -196.20774,-87.50858 -196.20774,-196.20762 l 0,-343.94054 c 0,-108.69904 87.5086,-196.20765 196.20774,-196.20765 z"
       id="rect5199"
       inkscape:connector-curvature="0" />
    <path
       inkscape:connector-curvature="0"
       id="path5580"
       style="font-size:medium;font-style:normal;font-variant:normal;font-weight:800;font-stretch:normal;line-height:89.99999762%;letter-spacing:0px;word-spacing:0px;fill:#ffffff;fill-opacity:1;stroke:none;font-family:Raleway;-inkscape-font-specification:Raleway Ultra-Bold"
       d="m -198.6268,742.3607 q 0,22.70443 -8.60228,39.48599 -8.60229,16.78146 -23.54305,28.13368 -14.94084,10.85869 -34.86194,16.78156 -19.92111,5.42934 -42.10593,5.42934 l -156.65209,0 0,-350.43803 178.83691,0 q 16.75178,0 30.33441,7.8972 13.58254,7.8972 23.09033,20.73021 9.5077,12.33928 14.48805,28.62731 5.43305,15.7943 5.43305,32.57586 0,25.17238 -11.77161,47.38319 -11.31881,22.2109 -34.40905,33.56311 27.61787,8.88427 43.46414,31.5887 16.29906,22.70444 16.29906,58.24188 z m -75.60956,-16.28803 q 0,-16.28793 -8.60229,-27.64014 -8.60229,-11.35222 -21.73202,-11.35222 l -85.57016,0 0,76.50413 82.40083,0 q 14.48805,0 23.99584,-10.36515 9.5078,-10.36506 9.5078,-27.14662 z m -115.90447,-175.21896 0,72.55548 72.89303,0 q 12.22433,0 21.73212,-8.88436 9.5078,-8.88427 9.5078,-27.64015 0,-17.27509 -8.60229,-26.65299 -8.14958,-9.37798 -19.9212,-9.37798 l -75.60946,0 z" />
  </g>
</svg>
