<?xml version="1.0" encoding="UTF-8" standalone="no"?>
<!-- Created with Inkscape (http://www.inkscape.org/) -->

<svg
   xmlns:dc="http://purl.org/dc/elements/1.1/"
   xmlns:cc="http://creativecommons.org/ns#"
   xmlns:rdf="http://www.w3.org/1999/02/22-rdf-syntax-ns#"
   xmlns:svg="http://www.w3.org/2000/svg"
   xmlns="http://www.w3.org/2000/svg"
   xmlns:sodipodi="http://sodipodi.sourceforge.net/DTD/sodipodi-0.dtd"
   xmlns:inkscape="http://www.inkscape.org/namespaces/inkscape"
   width="240"
   height="130"
   viewBox="0 0 744.09449 1052.3622"
   id="svg4443"
   version="1.1"
   inkscape:version="0.48.4 r9939"
   sodipodi:docname="3.svg">
  <defs
     id="defs4445" />
  <sodipodi:namedview
     id="base"
     pagecolor="#ffffff"
     bordercolor="#666666"
     borderopacity="1.0"
     inkscape:pageopacity="0.0"
     inkscape:pageshadow="2"
     inkscape:zoom="1.979899"
     inkscape:cx="5.271475"
     inkscape:cy="27.745197"
     inkscape:document-units="px"
     inkscape:current-layer="layer1"
     showgrid="false"
     inkscape:window-width="1600"
     inkscape:window-height="838"
     inkscape:window-x="1432"
     inkscape:window-y="-8"
     inkscape:window-maximized="1" />
  <metadata
     id="metadata4448">
    <rdf:RDF>
      <cc:Work
         rdf:about="">
        <dc:format>image/svg+xml</dc:format>
        <dc:type
           rdf:resource="http://purl.org/dc/dcmitype/StillImage" />
        <dc:title />
      </cc:Work>
    </rdf:RDF>
  </metadata>
  <g
     inkscape:label="Calque 1"
     inkscape:groupmode="layer"
     id="layer1">
    <path
       style="fill:#fecb02;fill-opacity:1;fill-rule:evenodd;stroke:none"
       d="m -539.51857,357.79059 383.3209,0 0,586.31477 -383.3209,0 z"
       id="rect5251"
       inkscape:connector-curvature="0" />
    <path
       inkscape:connector-curvature="0"
       id="path5526"
       style="font-size:medium;font-style:normal;font-variant:normal;font-weight:800;font-stretch:normal;line-height:89.99999762%;letter-spacing:0px;word-spacing:0px;fill:#ffffff;fill-opacity:0.44606413;stroke:none;font-family:Raleway;-inkscape-font-specification:Raleway Ultra-Bold"
       d="m -468.96681,653.89009 q 0,-23.95968 8.98485,-47.54488 8.98495,-23.95967 26.2059,-42.67816 17.22103,-18.71848 41.92939,-30.32384 24.70835,-11.60545 56.15535,-11.60545 37.43696,0 64.76591,16.09788 27.70334,16.09788 41.18063,41.9293 l -47.1705,32.94453 q -4.49243,-10.4823 -11.60545,-17.22104 -6.73865,-7.11293 -14.97483,-11.23107 -8.23608,-4.49242 -16.84655,-5.98987 -8.61057,-1.87183 -16.84666,-1.87183 -17.59532,0 -30.69832,7.11303 -13.1029,7.11303 -21.71337,18.3441 -8.61047,11.23107 -12.72861,25.45712 -4.11804,14.22596 -4.11804,28.8264 0,15.7235 4.86681,30.32393 4.86681,14.60035 13.85167,25.83151 9.35924,11.23107 22.08776,17.96971 13.10299,6.36426 29.20087,6.36426 8.23609,0 16.84656,-1.87183 8.98486,-2.24621 16.84665,-6.36435 8.23609,-4.49243 14.97473,-11.23107 6.73864,-7.11303 10.85678,-17.22094 l 50.16548,29.57516 q -5.98997,14.60044 -17.96971,26.2059 -11.60546,11.60545 -26.95467,19.46715 -15.34911,7.8618 -32.57005,11.97984 -17.22104,4.11805 -33.69331,4.11805 -28.82639,0 -53.16046,-11.60546 -23.95958,-11.97984 -41.55491,-31.44699 -17.22104,-19.46725 -26.95466,-44.17561 -9.35924,-24.70835 -9.35924,-50.16548 z" />
    <path
       style="fill:#0039ff;fill-opacity:0.62973764;fill-rule:evenodd;stroke:#ffffff;stroke-width:61.03178787;stroke-linecap:round;stroke-linejoin:round;stroke-miterlimit:4;stroke-opacity:1;stroke-dasharray:none;stroke-dashoffset:0"
       d="m -367.52127,281.61583 39.3264,0 c 108.69904,0 196.20765,87.50871 196.20765,196.20774 l 0,343.94054 c 0,108.69904 -87.50861,196.20769 -196.20765,196.20769 l -39.3264,0 c -108.69913,0 -196.20774,-87.50865 -196.20774,-196.20769 l 0,-343.94054 c 0,-108.69903 87.50861,-196.20774 196.20774,-196.20774 z"
       id="rect5263"
       inkscape:connector-curvature="0" />
    <path
       style="fill:#fecb02;fill-opacity:1;fill-rule:evenodd;stroke:none"
       d="m -367.52127,281.61583 39.3264,0 c 108.69904,0 196.20765,87.50871 196.20765,196.20774 l 0,343.94054 c 0,108.69904 -87.50861,196.20769 -196.20765,196.20769 l -39.3264,0 c -108.69913,0 -196.20774,-87.50865 -196.20774,-196.20769 l 0,-343.94054 c 0,-108.69903 87.50861,-196.20774 196.20774,-196.20774 z"
       id="rect5275"
       inkscape:connector-curvature="0" />
    <path
       inkscape:connector-curvature="0"
       id="path5511"
       style="font-size:medium;font-style:normal;font-variant:normal;font-weight:800;font-stretch:normal;line-height:89.99999762%;letter-spacing:0px;word-spacing:0px;fill:#ffffff;fill-opacity:1;stroke:none;font-family:Raleway;-inkscape-font-specification:Raleway Ultra-Bold"
       d="m -499.3036,654.01095 q 0,-31.58869 10.86611,-62.68395 10.86601,-31.5888 31.69262,-56.26746 20.82661,-24.67876 50.70821,-39.97953 29.8816,-15.30086 67.91279,-15.30086 45.27516,0 78.32637,21.22374 33.50345,21.22374 49.80223,55.28029 l -57.04649,43.43464 q -5.43324,-13.82007 -14.03562,-22.70443 -8.1493,-9.3779 -18.1099,-14.80724 -9.9605,-5.92297 -20.37371,-7.8972 -10.4134,-2.46795 -20.3739,-2.46795 -21.27932,0 -37.12567,9.3779 -15.84627,9.37789 -26.25957,24.18522 -10.41331,14.80724 -15.39356,33.56302 -4.98025,18.75588 -4.98025,38.0052 0,20.73021 5.88576,39.97963 5.88576,19.24951 16.75177,34.05665 11.31882,14.80723 26.71237,23.69159 15.84636,8.39073 35.31466,8.39073 9.9606,0 20.37381,-2.46785 10.8661,-2.96139 20.3739,-8.39073 9.9605,-5.92297 18.11037,-14.80724 8.14929,-9.37799 13.12954,-22.70443 l 60.66862,38.99236 q -7.24435,19.24942 -21.73193,34.55028 -14.03562,15.30077 -32.59841,25.66582 -18.56279,10.36515 -39.38921,15.7944 -20.82661,5.42934 -40.74771,5.42934 -34.86185,0 -64.29075,-15.30077 -28.97609,-15.79449 -50.25541,-41.46031 -20.82661,-25.66583 -32.59822,-58.24188 -11.31882,-32.57586 -11.31882,-66.13898 z" />
  </g>
</svg>
