<?xml version="1.0" encoding="UTF-8" standalone="no"?>
<!-- Created with Inkscape (http://www.inkscape.org/) -->

<svg
   xmlns:dc="http://purl.org/dc/elements/1.1/"
   xmlns:cc="http://creativecommons.org/ns#"
   xmlns:rdf="http://www.w3.org/1999/02/22-rdf-syntax-ns#"
   xmlns:svg="http://www.w3.org/2000/svg"
   xmlns="http://www.w3.org/2000/svg"
   xmlns:sodipodi="http://sodipodi.sourceforge.net/DTD/sodipodi-0.dtd"
   xmlns:inkscape="http://www.inkscape.org/namespaces/inkscape"
   width="240"
   height="130"
   viewBox="0 0 744.09449 1052.3622"
   id="svg4443"
   version="1.1"
   inkscape:version="0.48.4 r9939"
   sodipodi:docname="4.svg">
  <defs
     id="defs4445" />
  <sodipodi:namedview
     id="base"
     pagecolor="#ffffff"
     bordercolor="#666666"
     borderopacity="1.0"
     inkscape:pageopacity="0.0"
     inkscape:pageshadow="2"
     inkscape:zoom="1.979899"
     inkscape:cx="-22.363901"
     inkscape:cy="30.991254"
     inkscape:document-units="px"
     inkscape:current-layer="layer1"
     showgrid="false"
     inkscape:window-width="1600"
     inkscape:window-height="838"
     inkscape:window-x="1432"
     inkscape:window-y="-8"
     inkscape:window-maximized="1" />
  <metadata
     id="metadata4448">
    <rdf:RDF>
      <cc:Work
         rdf:about="">
        <dc:format>image/svg+xml</dc:format>
        <dc:type
           rdf:resource="http://purl.org/dc/dcmitype/StillImage" />
        <dc:title />
      </cc:Work>
    </rdf:RDF>
  </metadata>
  <g
     inkscape:label="Calque 1"
     inkscape:groupmode="layer"
     id="layer1">
    <path
       style="fill:#ee8100;fill-opacity:1;fill-rule:evenodd;stroke:none"
       d="m -528.88714,357.79049 363.0296,0 0,586.31477 -363.0296,0 z"
       id="rect5293"
       inkscape:connector-curvature="0" />
    <path
       inkscape:connector-curvature="0"
       id="path5480"
       style="font-size:medium;font-style:normal;font-variant:normal;font-weight:800;font-stretch:normal;line-height:89.99999762%;letter-spacing:0px;word-spacing:0px;fill:#ffffff;fill-opacity:0.44606413;stroke:none;font-family:Raleway;-inkscape-font-specification:Raleway Ultra-Bold"
       d="m -463.23932,789.03741 0,-265.80222 99.2079,0 q 32.94453,0 57.65289,10.4823 24.70835,10.48231 41.18062,28.45211 16.84627,17.96971 25.08293,42.30368 8.61066,23.95968 8.61066,51.28864 0,30.32393 -9.35962,55.03229 -9.35962,24.33397 -26.95457,41.92939 -17.22094,17.22094 -41.92939,26.95457 -24.33397,9.35924 -54.28352,9.35924 l -99.2079,0 z m 169.21501,-133.27549 q 0,-17.59543 -4.86681,-31.82139 -4.49243,-14.60043 -13.47729,-25.08273 -8.98485,-10.4824 -22.08785,-16.09789 -13.1029,-5.61558 -29.57516,-5.61558 l -37.81126,0 0,157.98385 37.81126,0 q 16.84665,0 29.94955,-5.98988 13.1029,-5.98996 21.71346,-16.47226 8.98486,-10.85669 13.47729,-25.08274 4.86681,-14.60044 4.86681,-31.82138 z" />
    <path
       style="fill:#0039ff;fill-opacity:0.62973764;fill-rule:evenodd;stroke:#ffffff;stroke-width:61.03178787;stroke-linecap:round;stroke-linejoin:round;stroke-miterlimit:4;stroke-opacity:1;stroke-dasharray:none;stroke-dashoffset:0"
       d="m -367.03554,281.61583 39.3264,0 c 108.69922,0 196.20764,87.5086 196.20764,196.20764 l 0,343.94054 c 0,108.69904 -87.50842,196.20779 -196.20764,196.20779 l -39.3264,0 c -108.69914,0 -196.20774,-87.50875 -196.20774,-196.20779 l 0,-343.94054 c 0,-108.69904 87.5086,-196.20764 196.20774,-196.20764 z"
       id="rect5317"
       inkscape:connector-curvature="0" />
    <path
       style="fill:#ee8100;fill-opacity:1;fill-rule:evenodd;stroke:none"
       d="m -367.03554,281.61583 39.3264,0 c 108.69922,0 196.20764,87.5086 196.20764,196.20764 l 0,343.94054 c 0,108.69904 -87.50842,196.20779 -196.20764,196.20779 l -39.3264,0 c -108.69914,0 -196.20774,-87.50875 -196.20774,-196.20779 l 0,-343.94054 c 0,-108.69904 87.5086,-196.20764 196.20774,-196.20764 z"
       id="rect5323"
       inkscape:connector-curvature="0" />
    <path
       inkscape:connector-curvature="0"
       id="path5460"
       style="font-size:medium;font-style:normal;font-variant:normal;font-weight:800;font-stretch:normal;line-height:89.99999762%;letter-spacing:0px;word-spacing:0px;fill:#ffffff;fill-opacity:1;stroke:none;font-family:Raleway;-inkscape-font-specification:Raleway Ultra-Bold"
       d="m -487.49849,832.19131 0,-350.43803 119.97912,0 q 39.84173,0 69.72399,13.82007 29.88132,13.82007 49.80252,37.51176 20.37323,23.6916 30.33431,55.77393 10.41311,31.58879 10.41311,67.61967 0,39.97962 -11.31815,72.55548 -11.31909,32.08233 -32.59832,55.28039 -20.82641,22.70443 -50.70859,35.53735 -29.42832,12.33938 -65.64887,12.33938 l -119.97912,0 z m 204.64377,-175.7126 q 0,-23.19797 -5.88623,-41.95375 -5.43229,-19.24952 -16.29869,-33.06959 -10.86648,-13.82007 -26.71218,-21.22364 -15.84664,-7.40367 -35.76755,-7.40367 l -45.72796,0 0,208.28846 45.72796,0 q 20.3739,0 36.22055,-7.8972 15.84569,-7.8971 26.25918,-21.71718 10.8664,-14.31379 16.29869,-33.06958 5.88623,-19.24942 5.88623,-41.95385 z" />
  </g>
</svg>
